<?xml version="1.0" encoding="UTF-8" standalone="no"?>
<!DOCTYPE svg PUBLIC "-//W3C//DTD SVG 1.1//EN"
 "http://www.w3.org/Graphics/SVG/1.1/DTD/svg11.dtd">
<!-- Generated by graphviz version 2.40.1 (20161225.0304)
 -->
<!-- Title: application_graph Pages: 1 -->
<svg width="563pt" height="260pt"
 viewBox="0.00 0.00 562.50 260.00" xmlns="http://www.w3.org/2000/svg" xmlns:xlink="http://www.w3.org/1999/xlink">
<g id="graph0" class="graph" transform="scale(1 1) rotate(0) translate(4 256)">
<title>application_graph</title>
<polygon fill="#ffffff" stroke="transparent" points="-4,4 -4,-256 558.5,-256 558.5,4 -4,4"/>
<!-- ballgame -->
<g id="node1" class="node">
<title>ballgame</title>
<polygon fill="none" stroke="#000000" points="225.5,-252 170.5,-252 170.5,-256 158.5,-256 158.5,-216 225.5,-216 225.5,-252"/>
<polyline fill="none" stroke="#000000" points="158.5,-252 170.5,-252 "/>
<text text-anchor="middle" x="192" y="-230.3" font-family="Times,serif" font-size="14.00" fill="#000000">ballgame</text>
</g>
<!-- grisp -->
<g id="node2" class="node">
<title>grisp</title>
<polygon fill="none" stroke="#000000" points="182,-180 140,-180 140,-184 128,-184 128,-144 182,-144 182,-180"/>
<polyline fill="none" stroke="#000000" points="128,-180 140,-180 "/>
<text text-anchor="middle" x="155" y="-158.3" font-family="Times,serif" font-size="14.00" fill="#000000">grisp</text>
</g>
<!-- ballgame&#45;&gt;grisp -->
<g id="edge1" class="edge">
<title>ballgame&#45;&gt;grisp</title>
<path fill="none" stroke="#000000" d="M182.6633,-215.8314C178.5757,-207.8771 173.6896,-198.369 169.1691,-189.5723"/>
<polygon fill="#000000" stroke="#000000" points="172.1461,-187.7078 164.4624,-180.4133 165.9201,-190.9074 172.1461,-187.7078"/>
</g>
<!-- partisan -->
<g id="node3" class="node">
<title>partisan</title>
<polygon fill="none" stroke="#000000" points="318.5,-180 271.5,-180 271.5,-184 259.5,-184 259.5,-144 318.5,-144 318.5,-180"/>
<polyline fill="none" stroke="#000000" points="259.5,-180 271.5,-180 "/>
<text text-anchor="middle" x="289" y="-158.3" font-family="Times,serif" font-size="14.00" fill="#000000">partisan</text>
</g>
<!-- ballgame&#45;&gt;partisan -->
<g id="edge2" class="edge">
<title>ballgame&#45;&gt;partisan</title>
<path fill="none" stroke="#000000" d="M216.4772,-215.8314C228.5395,-206.8779 243.254,-195.9558 256.2686,-186.2955"/>
<polygon fill="#000000" stroke="#000000" points="258.587,-188.9335 264.5306,-180.1628 254.4148,-183.3127 258.587,-188.9335"/>
</g>
<!-- mapz -->
<g id="node4" class="node">
<title>mapz</title>
<polygon fill="none" stroke="#000000" points="54,-108 12,-108 12,-112 0,-112 0,-72 54,-72 54,-108"/>
<polyline fill="none" stroke="#000000" points="0,-108 12,-108 "/>
<text text-anchor="middle" x="27" y="-86.3" font-family="Times,serif" font-size="14.00" fill="#000000">mapz</text>
</g>
<!-- grisp&#45;&gt;mapz -->
<g id="edge3" class="edge">
<title>grisp&#45;&gt;mapz</title>
<path fill="none" stroke="#000000" d="M127.8545,-146.7307C108.9326,-136.0871 83.4907,-121.776 62.8947,-110.1908"/>
<polygon fill="#000000" stroke="#000000" points="64.5381,-107.0995 54.1064,-105.2473 61.1062,-113.2005 64.5381,-107.0995"/>
</g>
<!-- lager -->
<g id="node5" class="node">
<title>lager</title>
<polygon fill="none" stroke="#000000" points="126,-108 84,-108 84,-112 72,-112 72,-72 126,-72 126,-108"/>
<polyline fill="none" stroke="#000000" points="72,-108 84,-108 "/>
<text text-anchor="middle" x="99" y="-86.3" font-family="Times,serif" font-size="14.00" fill="#000000">lager</text>
</g>
<!-- partisan&#45;&gt;lager -->
<g id="edge6" class="edge">
<title>partisan&#45;&gt;lager</title>
<path fill="none" stroke="#000000" d="M259.3439,-152.8342C229.9173,-143.4718 183.4567,-127.9713 135.6134,-108.0318"/>
<polygon fill="#000000" stroke="#000000" points="136.924,-104.786 126.35,-104.1216 134.2018,-111.235 136.924,-104.786"/>
</g>
<!-- acceptor_pool&#45;1.0.0&#45;rc.0 -->
<g id="node7" class="node">
<title>acceptor_pool&#45;1.0.0&#45;rc.0</title>
<polygon fill="none" stroke="#000000" points="295.5,-108 156.5,-108 156.5,-112 144.5,-112 144.5,-72 295.5,-72 295.5,-108"/>
<polyline fill="none" stroke="#000000" points="144.5,-108 156.5,-108 "/>
<text text-anchor="middle" x="220" y="-86.3" font-family="Times,serif" font-size="14.00" fill="#000000">acceptor_pool&#45;1.0.0&#45;rc.0</text>
</g>
<!-- partisan&#45;&gt;acceptor_pool&#45;1.0.0&#45;rc.0 -->
<g id="edge5" class="edge">
<title>partisan&#45;&gt;acceptor_pool&#45;1.0.0&#45;rc.0</title>
<path fill="none" stroke="#000000" d="M271.5884,-143.8314C263.479,-135.3694 253.6844,-125.1489 244.818,-115.8971"/>
<polygon fill="#000000" stroke="#000000" points="247.0921,-113.2115 237.646,-108.4133 242.0382,-118.0549 247.0921,-113.2115"/>
</g>
<!-- rand_compat -->
<g id="node8" class="node">
<title>rand_compat</title>
<polygon fill="none" stroke="#000000" points="402,-108 326,-108 326,-112 314,-112 314,-72 402,-72 402,-108"/>
<polyline fill="none" stroke="#000000" points="314,-108 326,-108 "/>
<text text-anchor="middle" x="358" y="-86.3" font-family="Times,serif" font-size="14.00" fill="#000000">rand_compat</text>
</g>
<!-- partisan&#45;&gt;rand_compat -->
<g id="edge7" class="edge">
<title>partisan&#45;&gt;rand_compat</title>
<path fill="none" stroke="#000000" d="M306.4116,-143.8314C314.521,-135.3694 324.3156,-125.1489 333.182,-115.8971"/>
<polygon fill="#000000" stroke="#000000" points="335.9618,-118.0549 340.354,-108.4133 330.9079,-113.2115 335.9618,-118.0549"/>
</g>
<!-- types -->
<g id="node9" class="node">
<title>types</title>
<polygon fill="none" stroke="#000000" points="474,-108 432,-108 432,-112 420,-112 420,-72 474,-72 474,-108"/>
<polyline fill="none" stroke="#000000" points="420,-108 432,-108 "/>
<text text-anchor="middle" x="447" y="-86.3" font-family="Times,serif" font-size="14.00" fill="#000000">types</text>
</g>
<!-- partisan&#45;&gt;types -->
<g id="edge8" class="edge">
<title>partisan&#45;&gt;types</title>
<path fill="none" stroke="#000000" d="M318.7595,-149.292C341.6328,-139.4224 374.1898,-125.1553 410.6027,-108.0966"/>
<polygon fill="#000000" stroke="#000000" points="412.3833,-111.1268 419.9397,-103.7004 409.4014,-104.7937 412.3833,-111.1268"/>
</g>
<!-- uuid -->
<g id="node10" class="node">
<title>uuid</title>
<polygon fill="none" stroke="#000000" points="546,-108 504,-108 504,-112 492,-112 492,-72 546,-72 546,-108"/>
<polyline fill="none" stroke="#000000" points="492,-108 504,-108 "/>
<text text-anchor="middle" x="519" y="-86.3" font-family="Times,serif" font-size="14.00" fill="#000000">uuid</text>
</g>
<!-- partisan&#45;&gt;uuid -->
<g id="edge9" class="edge">
<title>partisan&#45;&gt;uuid</title>
<path fill="none" stroke="#000000" d="M318.8213,-155.5812C355.5229,-147.2784 419.7297,-131.4425 482.1354,-107.987"/>
<polygon fill="#000000" stroke="#000000" points="483.6404,-111.1586 491.7279,-104.3145 481.1375,-104.6214 483.6404,-111.1586"/>
</g>
<!-- goldrush -->
<g id="node6" class="node">
<title>goldrush</title>
<polygon fill="none" stroke="#000000" points="131,-36 79,-36 79,-40 67,-40 67,0 131,0 131,-36"/>
<polyline fill="none" stroke="#000000" points="67,-36 79,-36 "/>
<text text-anchor="middle" x="99" y="-14.3" font-family="Times,serif" font-size="14.00" fill="#000000">goldrush</text>
</g>
<!-- lager&#45;&gt;goldrush -->
<g id="edge4" class="edge">
<title>lager&#45;&gt;goldrush</title>
<path fill="none" stroke="#000000" d="M99,-71.8314C99,-64.131 99,-54.9743 99,-46.4166"/>
<polygon fill="#000000" stroke="#000000" points="102.5001,-46.4132 99,-36.4133 95.5001,-46.4133 102.5001,-46.4132"/>
</g>
<!-- quickrand -->
<g id="node11" class="node">
<title>quickrand</title>
<polygon fill="none" stroke="#000000" points="554.5,-36 495.5,-36 495.5,-40 483.5,-40 483.5,0 554.5,0 554.5,-36"/>
<polyline fill="none" stroke="#000000" points="483.5,-36 495.5,-36 "/>
<text text-anchor="middle" x="519" y="-14.3" font-family="Times,serif" font-size="14.00" fill="#000000">quickrand</text>
</g>
<!-- uuid&#45;&gt;quickrand -->
<g id="edge10" class="edge">
<title>uuid&#45;&gt;quickrand</title>
<path fill="none" stroke="#000000" d="M519,-71.8314C519,-64.131 519,-54.9743 519,-46.4166"/>
<polygon fill="#000000" stroke="#000000" points="522.5001,-46.4132 519,-36.4133 515.5001,-46.4133 522.5001,-46.4132"/>
</g>
</g>
</svg>
